<?xml version="1.0" encoding="UTF-8" standalone="no"?>
<!-- Created with Inkscape (http://www.inkscape.org/) -->

<svg
   xmlns:dc="http://purl.org/dc/elements/1.1/"
   xmlns:cc="http://creativecommons.org/ns#"
   xmlns:rdf="http://www.w3.org/1999/02/22-rdf-syntax-ns#"
   xmlns:svg="http://www.w3.org/2000/svg"
   xmlns="http://www.w3.org/2000/svg"
   xmlns:xlink="http://www.w3.org/1999/xlink"
   xmlns:sodipodi="http://sodipodi.sourceforge.net/DTD/sodipodi-0.dtd"
   xmlns:inkscape="http://www.inkscape.org/namespaces/inkscape"
   width="27.576429mm"
   height="15.973325mm"
   viewBox="0 0 27.576429 15.973325"
   version="1.1"
   id="svg8"
   sodipodi:docname="dragonHead.svg"
   inkscape:version="0.92.5 (2060ec1f9f, 2020-04-08)">
  <defs
     id="defs2">
    <linearGradient
       inkscape:collect="always"
       id="linearGradient866">
      <stop
         style="stop-color:#000000;stop-opacity:1;"
         offset="0"
         id="stop862" />
      <stop
         style="stop-color:#000000;stop-opacity:0;"
         offset="1"
         id="stop864" />
    </linearGradient>
    <inkscape:path-effect
       effect="bspline"
       id="path-effect860"
       is_visible="true"
       weight="33.333333"
       steps="2"
       helper_size="0"
       apply_no_weight="true"
       apply_with_weight="true"
       only_selected="false" />
    <inkscape:path-effect
       effect="bspline"
       id="path-effect852"
       is_visible="true"
       weight="33.333333"
       steps="2"
       helper_size="0"
       apply_no_weight="true"
       apply_with_weight="true"
       only_selected="false" />
    <inkscape:path-effect
       only_selected="false"
       apply_with_weight="true"
       apply_no_weight="true"
       helper_size="0"
       steps="2"
       weight="33.333333"
       is_visible="true"
       id="path-effect848"
       effect="bspline" />
    <inkscape:path-effect
       effect="bspline"
       id="path-effect844"
       is_visible="true"
       weight="33.333333"
       steps="2"
       helper_size="0"
       apply_no_weight="true"
       apply_with_weight="true"
       only_selected="false" />
    <inkscape:path-effect
       effect="bspline"
       id="path-effect840"
       is_visible="true"
       weight="33.333333"
       steps="2"
       helper_size="0"
       apply_no_weight="true"
       apply_with_weight="true"
       only_selected="false" />
    <inkscape:path-effect
       effect="bspline"
       id="path-effect836"
       is_visible="true"
       weight="33.333333"
       steps="2"
       helper_size="0"
       apply_no_weight="true"
       apply_with_weight="true"
       only_selected="false" />
    <inkscape:path-effect
       effect="bspline"
       id="path-effect832"
       is_visible="true"
       weight="33.333333"
       steps="2"
       helper_size="0"
       apply_no_weight="true"
       apply_with_weight="true"
       only_selected="false" />
    <inkscape:path-effect
       effect="bspline"
       id="path-effect828"
       is_visible="true"
       weight="33.333333"
       steps="2"
       helper_size="0"
       apply_no_weight="true"
       apply_with_weight="true"
       only_selected="false" />
    <linearGradient
       inkscape:collect="always"
       xlink:href="#linearGradient866"
       id="linearGradient868"
       x1="18.527458"
       y1="268.63727"
       x2="36.088032"
       y2="268.63727"
       gradientUnits="userSpaceOnUse" />
  </defs>
  <sodipodi:namedview
     id="base"
     pagecolor="#ffffff"
     bordercolor="#666666"
     borderopacity="1.0"
     inkscape:pageopacity="0.0"
     inkscape:pageshadow="2"
     inkscape:zoom="0.7"
     inkscape:cx="354.02215"
     inkscape:cy="-290.97837"
     inkscape:document-units="mm"
     inkscape:current-layer="layer1"
     showgrid="false"
     inkscape:window-width="3840"
     inkscape:window-height="2120"
     inkscape:window-x="3348"
     inkscape:window-y="-12"
     inkscape:window-maximized="1" />
  <metadata
     id="metadata5">
    <rdf:RDF>
      <cc:Work
         rdf:about="">
        <dc:format>image/svg+xml</dc:format>
        <dc:type
           rdf:resource="http://purl.org/dc/dcmitype/StillImage" />
        <dc:title></dc:title>
      </cc:Work>
    </rdf:RDF>
  </metadata>
  <g
     inkscape:label="Layer 1"
     inkscape:groupmode="layer"
     id="layer1"
     transform="translate(-8.5116039,-260.8957)">
    <g
       id="g887">
      <path
         inkscape:original-d="m 9.4021575,273.25836 c -0.2005351,0.0982 -0.401335,0.19661 -0.6023993,0.2953 -0.1180402,0.24423 -0.2359705,0.48794 -0.3543528,0.73231 0.047573,0.46495 0.094759,0.92893 0.141741,1.3938 0.1854092,0.24397 0.3703664,0.48794 0.5551527,0.73234 0.4570617,0.22418 0.9137069,0.44857 1.3701639,0.67326 -0.149316,-0.21677 -0.291092,-0.43336 -0.437035,-0.64966 -0.1965442,-0.26792 -0.3934609,-0.53573 -0.5905882,-0.80319 -0.023355,-0.35455 -0.046982,-0.70896 -0.07087,-1.06305 0.023871,-0.36224 0.047512,-0.72472 0.07087,-1.08669 -0.027275,-0.075 -0.054857,-0.14989 -0.082682,-0.22442 z"
         inkscape:path-effect="#path-effect832"
         inkscape:connector-curvature="0"
         id="path830"
         d="m 9.3156617,273.34483 c -0.1139984,0.0118 -0.314789,0.11024 -0.4744225,0.28162 -0.1596336,0.17139 -0.2775614,0.4151 -0.3130548,0.7698 -0.035493,0.3547 0.01169,0.81868 0.1278826,1.1732 0.1161921,0.35451 0.3011398,0.59849 0.6221362,0.83283 0.3209964,0.23434 0.7776448,0.45872 0.9324958,0.46171 0.154852,0.003 0.01037,-0.21178 -0.16087,-0.45388 -0.1712426,-0.2421 -0.3681625,-0.50991 -0.4783936,-0.82102 -0.110231,-0.3111 -0.1338584,-0.66551 -0.1338495,-1.02369 8.9e-6,-0.35819 0.023649,-0.72067 0.021657,-0.93909 -0.00199,-0.21841 -0.029582,-0.2933 -0.1435808,-0.28148 z"
         style="fill:#000000;fill-opacity:1;stroke:#000000;stroke-width:0.01;stroke-linecap:butt;stroke-linejoin:miter;stroke-miterlimit:4;stroke-dasharray:none;stroke-opacity:1" />
      <path
         inkscape:original-d="m 10.937686,272.97488 c 0.08295,-0.11837 0.165629,-0.23651 0.248047,-0.35436 -0.01544,-0.12594 -0.03123,-0.24436 -0.04725,-0.36615 -0.156933,-0.0749 -0.314716,-0.14989 -0.472471,-0.22442 -0.23614,0.14158 -0.472205,0.28321 -0.7087047,0.42521 -0.1101239,0.39793 -0.2202217,0.79505 -0.3307292,1.19298 0.067251,0.43712 0.134131,0.87381 0.2007997,1.31112 0.1381376,0.24791 0.2758722,0.49583 0.4134112,0.74414 0.338991,0.16121 0.677472,0.32258 1.015811,0.48426 0.0042,-0.0278 0.0081,-0.0554 0.01181,-0.0827 -0.02311,-0.0236 -0.04698,-0.0475 -0.07087,-0.0709 -0.106041,-0.23257 -0.212347,-0.46488 -0.318918,-0.69689 -0.07844,-0.33872 -0.157225,-0.67749 -0.236235,-1.01581 0.04748,-0.39378 0.09476,-0.78772 0.141741,-1.18118 0.05141,-0.0553 0.102633,-0.11052 0.153553,-0.16537 z"
         inkscape:path-effect="#path-effect836"
         inkscape:connector-curvature="0"
         id="path834"
         d="m 10.97913,272.91567 c 0.04144,-0.0592 0.124134,-0.17734 0.157249,-0.29916 0.03312,-0.12183 0.01783,-0.24031 -0.06857,-0.33853 -0.0864,-0.0982 -0.244197,-0.17317 -0.441044,-0.13977 -0.196848,0.0334 -0.432911,0.17503 -0.606336,0.44493 -0.1734248,0.2699 -0.2835185,0.66702 -0.3052079,1.08459 -0.021689,0.41758 0.04519,0.85427 0.1475861,1.19694 0.1023961,0.34267 0.2401298,0.59059 0.4784748,0.79543 0.238346,0.20483 0.57683,0.36619 0.748062,0.43296 0.171232,0.0668 0.175172,0.0392 0.165445,0.0139 -0.0097,-0.0253 -0.03361,-0.0492 -0.09861,-0.17725 -0.065,-0.12803 -0.171313,-0.36034 -0.263812,-0.64574 -0.0925,-0.28541 -0.171283,-0.62418 -0.187003,-0.99028 -0.01572,-0.3661 0.03155,-0.76004 0.08085,-0.98442 0.04929,-0.22438 0.100544,-0.27958 0.126007,-0.307 0.02546,-0.0274 0.02547,-0.0274 0.06691,-0.0866 z"
         style="fill:#000000;fill-opacity:1;stroke:#000000;stroke-width:0.01;stroke-linecap:butt;stroke-linejoin:miter;stroke-miterlimit:4;stroke-dasharray:none;stroke-opacity:1" />
      <path
         inkscape:original-d="m 12.910249,273.8017 c -0.01942,-0.16168 -0.03911,-0.32313 -0.05906,-0.48429 -0.09016,-0.11427 -0.180849,-0.22863 -0.27167,-0.34253 -0.0942,-0.0632 -0.188724,-0.12626 -0.283482,-0.18899 -0.11005,-0.0436 -0.220222,-0.0869 -0.330729,-0.12994 -0.08252,-2.6e-4 -0.1651,-2.6e-4 -0.248047,0 -0.08268,0.21305 -0.1651,0.42498 -0.248047,0.63783 -0.01945,0.3152 -0.03911,0.62971 -0.05906,0.94496 0.03967,0.26377 0.07113,0.52732 0.106306,0.79137 0.142126,0.26376 0.283747,0.52734 0.425223,0.7914 0.0042,-0.0198 0.0081,-0.0396 0.01181,-0.0591 -0.01136,-0.0313 -0.02336,-0.0633 -0.03543,-0.0945 0.04338,-0.20407 0.08688,-0.40976 0.129929,-0.61423 0.10248,-0.25186 0.205002,-0.50422 0.307106,-0.75594 0.110368,-0.1025 0.228625,-0.205 0.342541,-0.3071 0.07096,-0.0631 0.142005,-0.12626 0.212611,-0.189 z"
         inkscape:path-effect="#path-effect840"
         inkscape:connector-curvature="0"
         id="path838"
         d="m 12.900393,273.72088 c -0.0099,-0.0808 -0.02955,-0.24227 -0.0846,-0.37989 -0.05505,-0.13762 -0.145751,-0.25197 -0.238205,-0.3405 -0.09245,-0.0885 -0.186998,-0.15156 -0.289362,-0.20472 -0.102363,-0.0532 -0.21254,-0.0965 -0.30899,-0.11814 -0.09645,-0.0217 -0.179029,-0.0217 -0.261918,0.0848 -0.08289,0.10649 -0.165307,0.31842 -0.216555,0.58247 -0.05125,0.26404 -0.07091,0.57855 -0.063,0.86835 0.0079,0.2898 0.04323,0.55283 0.131873,0.8168 0.08864,0.26397 0.23026,0.52755 0.303138,0.64957 0.07288,0.12202 0.07683,0.10223 0.07293,0.0769 -0.0039,-0.0253 -0.0159,-0.0573 -1.81e-4,-0.17504 0.01572,-0.11771 0.05923,-0.3234 0.132019,-0.55157 0.07279,-0.22818 0.175315,-0.48054 0.282502,-0.65663 0.107187,-0.1761 0.223694,-0.28055 0.316129,-0.36316 0.09244,-0.0826 0.163483,-0.14576 0.19878,-0.17713 0.0353,-0.0314 0.0353,-0.0313 0.02544,-0.11214 z"
         style="fill:#000000;fill-opacity:1;stroke:#000000;stroke-width:0.01;stroke-linecap:butt;stroke-linejoin:miter;stroke-miterlimit:4;stroke-dasharray:none;stroke-opacity:1" />
      <path
         inkscape:original-d="m 13.489025,273.89619 c -0.04304,-0.55542 -0.08635,-1.11057 -0.129929,-1.66545 0.0593,-0.53549 0.118382,-1.07119 0.177176,-1.60639 0.216696,-0.64169 0.433362,-1.28381 0.649647,-1.92532 0.2718,-0.44495 0.543605,-0.89009 0.815011,-1.33474 0.02387,-0.14584 0.04751,-0.29163 0.07087,-0.43704 -0.05081,-0.0396 -0.102104,-0.079 -0.153552,-0.11811 -0.149463,0.0746 -0.298967,0.14935 -0.448847,0.22442 -0.0747,0.0944 -0.149351,0.18872 -0.224423,0.2835 0.02396,-0.11086 0.04751,-0.22077 0.07087,-0.33073 0.208358,-0.37328 0.417613,-0.74835 0.626023,-1.12213 0.381857,-0.43693 0.764092,-0.87434 1.145741,-1.31111 0.523582,-0.30323 1.047573,-0.6066 1.570963,-0.9095 0.889552,-0.27964 1.779902,-0.55148 2.669457,-0.82682 -0.02729,-0.0711 -0.05486,-0.14201 -0.08268,-0.21262 -0.01152,-0.0513 -0.03123,-0.10263 -0.04725,-0.15355 -0.34508,-0.0788 -0.692691,-0.15775 -1.039434,-0.23623 0.0633,-0.016 0.118382,-0.0239 0.177176,-0.0354 0.572132,-0.13735 1.149942,-0.27587 1.724517,-0.41341 0.759744,-0.0593 1.520043,-0.11838 2.279669,-0.17718 0.448943,0.13749 0.897958,0.27535 1.34654,0.41342 0.488301,0.2162 0.976703,0.43283 1.464657,0.64964 0.0042,0.0194 0.0081,0.0391 0.01181,0.0591 -0.01565,0.40946 -0.03123,0.81081 -0.04725,1.21661 0.07512,0.38191 0.149881,0.76357 0.224424,1.14574 -0.02337,-0.0436 -0.04698,-0.0869 -0.07087,-0.12994 -0.467266,-0.23598 -0.936801,-0.47272 -1.405599,-0.70869 -0.377796,-0.40983 -0.755687,-0.81922 -1.133928,-1.22843 -0.125724,-0.23255 -0.25172,-0.46486 -0.377976,-0.69689 -0.0037,0.008 -0.0076,0.0155 -0.01181,0.0236 -0.126712,0.10213 -0.243845,0.20447 -0.366165,0.3071 -0.102343,0.3194 -0.204472,0.63757 -0.307106,0.95675 0.09091,0.3978 0.181379,0.80294 0.271671,1.20479 -0.02337,-0.0161 -0.04698,-0.0317 -0.07087,-0.0472 -0.481321,-0.0279 -0.960425,-0.0554 -1.441034,-0.0827 -0.303061,0.0273 -0.606072,0.0548 -0.909505,0.0827 -0.165256,0.0549 -0.330465,0.10996 -0.496094,0.16536 0.06733,0.0116 0.126257,0.0233 0.188988,0.0354 0.235721,0.14885 0.48061,0.29895 0.720517,0.44884 0.334831,0.29493 0.669598,0.59034 1.004,0.88588 0.05932,0.12967 0.118382,0.25961 0.177176,0.38978 -0.06279,0.11009 -0.125728,0.22024 -0.188988,0.33073 -0.351147,0.18928 -0.700566,0.37772 -1.051246,0.56698 -0.586914,0.29135 -1.173037,0.58245 -1.759952,0.87407 -0.389734,0.35428 -0.779311,0.70842 -1.169364,1.06305 -0.09036,0.21645 -0.180849,0.43283 -0.27167,0.64965 0.0042,0.0193 0.0081,0.0391 0.01181,0.0591 0.02413,0.004 0.05539,0.008 0.08268,0.0119 0.261933,-0.10178 0.527856,-0.20499 0.791388,-0.3071 0.275538,-0.0435 0.551479,-0.0869 0.826823,-0.12991 0.267707,0.0272 0.53573,0.0548 0.803199,0.0827 0.157616,0.0863 0.315245,0.17296 0.47247,0.25985 0.130119,0.0981 0.260123,0.19659 0.389788,0.2953 -0.08633,0.0352 -0.172974,0.0706 -0.259858,0.10631 -0.09063,0.0709 -0.18085,0.14148 -0.271671,0.2126 -0.02343,0.37893 -0.04698,0.7557 -0.07087,1.13392 0.05937,0.25191 0.118382,0.50371 0.177176,0.75597 0.157875,0.42135 0.315245,0.8423 0.47247,1.26386 -0.03124,-0.0122 -0.06273,-0.0238 -0.09449,-0.0354 -2.511398,0.0235 -5.000045,0.047 -7.500465,0.0709 -0.0037,-0.0161 -0.0076,-0.0318 -0.01181,-0.0473 z"
         inkscape:path-effect="#path-effect844"
         inkscape:connector-curvature="0"
         id="path842"
         d="m 13.467361,273.61849 c -0.02167,-0.2777 -0.06498,-0.83285 -0.05709,-1.37806 0.0079,-0.54521 0.06697,-1.08091 0.204755,-1.66936 0.137783,-0.58846 0.354449,-1.23058 0.598531,-1.77381 0.244082,-0.54323 0.51589,-0.98837 0.663458,-1.28361 0.147568,-0.29523 0.171209,-0.44102 0.157466,-0.53335 -0.01374,-0.0923 -0.06501,-0.13176 -0.165328,-0.11411 -0.100318,0.0177 -0.249822,0.0924 -0.362147,0.17708 -0.112325,0.0847 -0.186984,0.17899 -0.212625,0.17094 -0.02564,-0.008 -0.0021,-0.11796 0.113825,-0.35958 0.115914,-0.24163 0.325163,-0.6167 0.620331,-1.02204 0.295168,-0.40534 0.677406,-0.84275 1.130053,-1.2127 0.452648,-0.36995 0.976642,-0.67331 1.68367,-0.96275 0.707028,-0.28943 1.596267,-0.56486 2.027218,-0.73811 0.430951,-0.17324 0.403377,-0.24415 0.381916,-0.30456 -0.02146,-0.0604 -0.03759,-0.11285 -0.218025,-0.17758 -0.18043,-0.0647 -0.52803,-0.14373 -0.669394,-0.18951 -0.141365,-0.0458 -0.08688,-0.0567 0.228582,-0.13112 0.315461,-0.0745 0.893272,-0.21297 1.560419,-0.31136 0.667146,-0.0984 1.427445,-0.15748 2.031671,-0.1181 0.604227,0.0394 1.053242,0.17724 1.521661,0.35438 0.468419,0.17714 0.956822,0.39377 1.202814,0.51175 0.245992,0.11797 0.249927,0.13767 0.243969,0.35236 -0.006,0.2147 -0.02154,0.61605 0.008,1.00994 0.02953,0.39389 0.104287,0.77555 0.129868,0.94489 0.02558,0.16934 0.002,0.12604 -0.24353,-0.0134 -0.245496,-0.13944 -0.715033,-0.37618 -1.138388,-0.69911 -0.423354,-0.32293 -0.801248,-0.73232 -1.053249,-1.05324 -0.252001,-0.32092 -0.378,-0.55323 -0.442941,-0.66539 -0.06494,-0.11216 -0.06872,-0.1046 -0.133103,-0.0482 -0.06438,0.0564 -0.183531,0.15629 -0.295954,0.36727 -0.112424,0.21098 -0.214553,0.52915 -0.220908,0.88779 -0.0064,0.35865 0.08496,0.7636 0.118448,0.95663 0.03349,0.19302 0.0099,0.17733 -0.24258,0.15563 -0.252519,-0.0217 -0.731623,-0.0492 -1.123438,-0.0492 -0.391816,-2e-5 -0.694822,0.0275 -0.929153,0.0689 -0.234331,0.0413 -0.399537,0.0964 -0.448807,0.1303 -0.04927,0.0339 0.0098,0.045 0.159485,0.12454 0.149709,0.0796 0.393498,0.23145 0.68084,0.45384 0.287342,0.2224 0.622123,0.51779 0.818946,0.73033 0.196824,0.21254 0.255888,0.34248 0.254001,0.46252 -0.0019,0.12003 -0.06483,0.23018 -0.271963,0.38013 -0.207135,0.14995 -0.556547,0.33841 -1.025343,0.57872 -0.468795,0.24031 -1.05492,0.53141 -1.543266,0.85431 -0.488346,0.3229 -0.877914,0.67705 -1.118196,0.96255 -0.240282,0.2855 -0.330768,0.50189 -0.374179,0.62001 -0.04341,0.11812 -0.03946,0.13791 -0.02536,0.14962 0.01409,0.0117 0.04528,0.0162 0.189917,-0.0327 0.144633,-0.0489 0.410562,-0.15207 0.680087,-0.22484 0.269525,-0.0728 0.545473,-0.11612 0.81696,-0.12397 0.271488,-0.008 0.539511,0.0197 0.751991,0.0768 0.212479,0.0571 0.370094,0.14375 0.51374,0.23624 0.143645,0.0925 0.273649,0.19097 0.295452,0.25783 0.0218,0.0668 -0.06482,0.10229 -0.153604,0.15553 -0.08878,0.0532 -0.178989,0.12384 -0.236252,0.34884 -0.05726,0.225 -0.08081,0.60177 -0.0631,0.91688 0.01771,0.31511 0.07672,0.56691 0.185055,0.90374 0.108331,0.33683 0.265696,0.75778 0.328768,0.96262 0.06307,0.20484 0.03165,0.19306 -1.239882,0.199 -1.271529,0.006 -3.760176,0.0295 -5.012387,0.0333 -1.252212,0.004 -1.256131,-0.0119 -1.258076,-0.0197 -0.0019,-0.008 -0.0019,-0.008 -0.02361,-0.28572 z"
         style="fill:#000000;fill-opacity:1;stroke:#000000;stroke-width:0.01;stroke-linecap:butt;stroke-linejoin:miter;stroke-miterlimit:4;stroke-dasharray:none;stroke-opacity:1" />
      <path
         style="fill:#000000;fill-opacity:1;stroke:#000000;stroke-width:0.01;stroke-linecap:butt;stroke-linejoin:miter;stroke-miterlimit:4;stroke-dasharray:none;stroke-opacity:1"
         d="m 13.467361,273.61849 c -0.02167,-0.2777 -0.06498,-0.83285 -0.05709,-1.37806 0.0079,-0.54521 0.06697,-1.08091 0.204755,-1.66936 0.137783,-0.58846 0.354449,-1.23058 0.598531,-1.77381 0.244082,-0.54323 0.51589,-0.98837 0.663458,-1.28361 0.147568,-0.29523 0.171209,-0.44102 0.157466,-0.53335 -0.01374,-0.0923 -0.06501,-0.13176 -0.165328,-0.11411 -0.100318,0.0177 -0.249822,0.0924 -0.362147,0.17708 -0.112325,0.0847 -0.186984,0.17899 -0.212625,0.17094 -0.02564,-0.008 -0.0021,-0.11796 0.113825,-0.35958 0.115914,-0.24163 0.325163,-0.6167 0.620331,-1.02204 0.295168,-0.40534 0.677406,-0.84275 1.130053,-1.2127 0.452648,-0.36995 0.976642,-0.67331 1.68367,-0.96275 0.707028,-0.28943 1.596267,-0.56486 2.027218,-0.73811 0.430951,-0.17324 0.403377,-0.24415 0.381916,-0.30456 -0.02146,-0.0604 -0.03759,-0.11285 -0.218025,-0.17758 -0.18043,-0.0647 -0.52803,-0.14373 -0.669394,-0.18951 -0.141365,-0.0458 -0.08688,-0.0567 0.228582,-0.13112 0.315461,-0.0745 0.893272,-0.21297 1.560419,-0.31136 0.667146,-0.0984 1.427445,-0.15748 2.031671,-0.1181 0.604227,0.0394 1.053242,0.17724 1.521661,0.35438 0.468419,0.17714 0.956822,0.39377 1.202814,0.51175 0.245992,0.11797 0.249927,0.13767 0.243969,0.35236 -0.006,0.2147 -0.02154,0.61605 0.008,1.00994 0.02953,0.39389 0.104287,0.77555 0.129868,0.94489 0.02558,0.16934 0.002,0.12604 -0.24353,-0.0134 -0.245496,-0.13944 -0.715033,-0.37618 -1.138388,-0.69911 -0.423354,-0.32293 -0.801248,-0.73232 -1.053249,-1.05324 -0.252001,-0.32092 -0.378,-0.55323 -0.442941,-0.66539 -0.06494,-0.11216 -0.06872,-0.1046 -0.133103,-0.0482 -0.06438,0.0564 -0.183531,0.15629 -0.295954,0.36727 -0.112424,0.21098 -0.214553,0.52915 -0.220908,0.88779 -0.0064,0.35865 0.08496,0.7636 0.118448,0.95663 0.03349,0.19302 0.0099,0.17733 -0.24258,0.15563 -0.252519,-0.0217 -0.731623,-0.0492 -1.123438,-0.0492 -0.391816,-2e-5 -0.694822,0.0275 -0.929153,0.0689 -0.234331,0.0413 -0.399537,0.0964 -0.448807,0.1303 -0.04927,0.0339 0.0098,0.045 0.159485,0.12454 0.149709,0.0796 0.393498,0.23145 0.68084,0.45384 0.287342,0.2224 0.622123,0.51779 0.818946,0.73033 0.196824,0.21254 0.255888,0.34248 0.254001,0.46252 -0.0019,0.12003 -0.06483,0.23018 -0.271963,0.38013 -0.207135,0.14995 -0.556547,0.33841 -1.025343,0.57872 -0.468795,0.24031 -1.05492,0.53141 -1.543266,0.85431 -0.488346,0.3229 -0.877914,0.67705 -1.118196,0.96255 -0.240282,0.2855 -0.330768,0.50189 -0.374179,0.62001 -0.04341,0.11812 -0.03946,0.13791 -0.02536,0.14962 0.01409,0.0117 0.04528,0.0162 0.189917,-0.0327 0.144633,-0.0489 0.410562,-0.15207 0.680087,-0.22484 0.269525,-0.0728 0.545473,-0.11612 0.81696,-0.12397 0.271488,-0.008 0.539511,0.0197 0.751991,0.0768 0.212479,0.0571 0.370094,0.14375 0.51374,0.23624 0.143645,0.0925 0.273649,0.19097 0.295452,0.25783 0.0218,0.0668 -0.06482,0.10229 -0.153604,0.15553 -0.08878,0.0532 -0.178989,0.12384 -0.236252,0.34884 -0.05726,0.225 -0.08081,0.60177 -0.0631,0.91688 0.01771,0.31511 0.07672,0.56691 0.185055,0.90374 0.108331,0.33683 0.265696,0.75778 0.328768,0.96262 0.06307,0.20484 0.03165,0.19306 -1.239882,0.199 -1.271529,0.006 -3.760176,0.0295 -5.012387,0.0333 -1.252212,0.004 -1.256131,-0.0119 -1.258076,-0.0197 -0.0019,-0.008 -0.0019,-0.008 -0.02361,-0.28572 z"
         id="path846"
         inkscape:connector-curvature="0"
         inkscape:path-effect="#path-effect848"
         inkscape:original-d="m 13.489025,273.89619 c -0.04304,-0.55542 -0.08635,-1.11057 -0.129929,-1.66545 0.0593,-0.53549 0.118382,-1.07119 0.177176,-1.60639 0.216696,-0.64169 0.433362,-1.28381 0.649647,-1.92532 0.2718,-0.44495 0.543605,-0.89009 0.815011,-1.33474 0.02387,-0.14584 0.04751,-0.29163 0.07087,-0.43704 -0.05081,-0.0396 -0.102104,-0.079 -0.153552,-0.11811 -0.149463,0.0746 -0.298967,0.14935 -0.448847,0.22442 -0.0747,0.0944 -0.149351,0.18872 -0.224423,0.2835 0.02396,-0.11086 0.04751,-0.22077 0.07087,-0.33073 0.208358,-0.37328 0.417613,-0.74835 0.626023,-1.12213 0.381857,-0.43693 0.764092,-0.87434 1.145741,-1.31111 0.523582,-0.30323 1.047573,-0.6066 1.570963,-0.9095 0.889552,-0.27964 1.779902,-0.55148 2.669457,-0.82682 -0.02729,-0.0711 -0.05486,-0.14201 -0.08268,-0.21262 -0.01152,-0.0513 -0.03123,-0.10263 -0.04725,-0.15355 -0.34508,-0.0788 -0.692691,-0.15775 -1.039434,-0.23623 0.0633,-0.016 0.118382,-0.0239 0.177176,-0.0354 0.572132,-0.13735 1.149942,-0.27587 1.724517,-0.41341 0.759744,-0.0593 1.520043,-0.11838 2.279669,-0.17718 0.448943,0.13749 0.897958,0.27535 1.34654,0.41342 0.488301,0.2162 0.976703,0.43283 1.464657,0.64964 0.0042,0.0194 0.0081,0.0391 0.01181,0.0591 -0.01565,0.40946 -0.03123,0.81081 -0.04725,1.21661 0.07512,0.38191 0.149881,0.76357 0.224424,1.14574 -0.02337,-0.0436 -0.04698,-0.0869 -0.07087,-0.12994 -0.467266,-0.23598 -0.936801,-0.47272 -1.405599,-0.70869 -0.377796,-0.40983 -0.755687,-0.81922 -1.133928,-1.22843 -0.125724,-0.23255 -0.25172,-0.46486 -0.377976,-0.69689 -0.0037,0.008 -0.0076,0.0155 -0.01181,0.0236 -0.126712,0.10213 -0.243845,0.20447 -0.366165,0.3071 -0.102343,0.3194 -0.204472,0.63757 -0.307106,0.95675 0.09091,0.3978 0.181379,0.80294 0.271671,1.20479 -0.02337,-0.0161 -0.04698,-0.0317 -0.07087,-0.0472 -0.481321,-0.0279 -0.960425,-0.0554 -1.441034,-0.0827 -0.303061,0.0273 -0.606072,0.0548 -0.909505,0.0827 -0.165256,0.0549 -0.330465,0.10996 -0.496094,0.16536 0.06733,0.0116 0.126257,0.0233 0.188988,0.0354 0.235721,0.14885 0.48061,0.29895 0.720517,0.44884 0.334831,0.29493 0.669598,0.59034 1.004,0.88588 0.05932,0.12967 0.118382,0.25961 0.177176,0.38978 -0.06279,0.11009 -0.125728,0.22024 -0.188988,0.33073 -0.351147,0.18928 -0.700566,0.37772 -1.051246,0.56698 -0.586914,0.29135 -1.173037,0.58245 -1.759952,0.87407 -0.389734,0.35428 -0.779311,0.70842 -1.169364,1.06305 -0.09036,0.21645 -0.180849,0.43283 -0.27167,0.64965 0.0042,0.0193 0.0081,0.0391 0.01181,0.0591 0.02413,0.004 0.05539,0.008 0.08268,0.0119 0.261933,-0.10178 0.527856,-0.20499 0.791388,-0.3071 0.275538,-0.0435 0.551479,-0.0869 0.826823,-0.12991 0.267707,0.0272 0.53573,0.0548 0.803199,0.0827 0.157616,0.0863 0.315245,0.17296 0.47247,0.25985 0.130119,0.0981 0.260123,0.19659 0.389788,0.2953 -0.08633,0.0352 -0.172974,0.0706 -0.259858,0.10631 -0.09063,0.0709 -0.18085,0.14148 -0.271671,0.2126 -0.02343,0.37893 -0.04698,0.7557 -0.07087,1.13392 0.05937,0.25191 0.118382,0.50371 0.177176,0.75597 0.157875,0.42135 0.315245,0.8423 0.47247,1.26386 -0.03124,-0.0122 -0.06273,-0.0238 -0.09449,-0.0354 -2.511398,0.0235 -5.000045,0.047 -7.500465,0.0709 -0.0037,-0.0161 -0.0076,-0.0318 -0.01181,-0.0473 z" />
      <path
         inkscape:original-d="m 27.344214,260.98594 c -0.216284,0.33047 -0.432832,0.6612 -0.649645,0.99219 -0.0825,0.49629 -0.1651,0.99192 -0.248048,1.48828 0.04754,0.4725 0.09476,0.94468 0.141741,1.41741 0.03572,0.0982 0.07114,0.19661 0.106307,0.2953 0.228973,0.12591 0.456986,0.25172 0.68508,0.37798 0.263956,0.38148 0.527857,0.76356 0.791387,1.14573 0.07115,0.27538 0.142008,0.55097 0.212614,0.82682 -0.04701,-0.0554 -0.09423,-0.11049 -0.141742,-0.16536 -0.342141,-0.40958 -0.684816,-0.81921 -1.027623,-1.22841 -0.531231,-0.31523 -1.062793,-0.63024 -1.594587,-0.94496 -0.302949,-0.16566 -0.606072,-0.33099 -0.909505,-0.49609 -0.287242,-0.26414 -0.574574,-0.52785 -0.862258,-0.79138 -0.117858,-0.33495 -0.23597,-0.6696 -0.354353,-1.004 -0.0037,0.0234 -0.0076,0.047 -0.01181,0.0709 -0.107392,0.21106 -0.212347,0.41708 -0.318917,0.62602 -0.02339,0.25605 -0.04698,0.51158 -0.07087,0.76777 0.06727,0.16922 0.134132,0.33834 0.2008,0.50791 0.114539,0.16129 0.228626,0.32258 0.342541,0.48426 -0.01943,-2.6e-4 -0.03911,-2.6e-4 -0.05906,0 -0.199244,-2.6e-4 -0.39346,-2.6e-4 -0.590587,0 -0.19292,-0.0791 -0.385586,-0.15774 -0.578776,-0.23622 -0.228255,-0.0673 -0.456457,-0.13414 -0.685082,-0.20079 -0.25585,0.0391 -0.511578,0.0785 -0.767764,0.11811 0.01997,0.004 0.04751,0.008 0.07087,0.0119 0.168029,0.0934 0.338868,0.18872 0.507906,0.2835 0.299338,0.30668 0.598727,0.61394 0.897693,0.9213 0.07507,0.22416 0.14988,0.44858 0.224423,0.67326 -0.04702,0.11007 -0.102103,0.2281 -0.153552,0.34256 -0.469578,0.22479 -0.936802,0.44857 -1.405599,0.67326 -0.374029,0.14946 -0.747814,0.29898 -1.122117,0.44886 -0.338628,0.22829 -0.676943,0.45644 -1.015811,0.68506 -0.165249,0.19286 -0.338339,0.39346 -0.507906,0.59061 0.04758,-0.0161 0.09476,-0.0318 0.141741,-0.0473 0.234913,-0.0706 0.472735,-0.142 0.708706,-0.21262 0.409192,-0.0278 0.819213,-0.0554 1.228422,-0.0827 0.279618,0.14925 0.559355,0.29898 0.838635,0.44887 0.09866,0.22801 0.197127,0.45645 0.295294,0.68508 -0.03125,0.32277 -0.06273,0.65331 -0.09449,0.98036 -0.13766,0.34653 -0.275343,0.69271 -0.413412,1.03944 0.11061,-0.0909 0.228626,-0.18137 0.342541,-0.27167 0.345859,-0.29874 0.693221,-0.59873 1.039435,-0.89771 0.444811,-0.23235 0.890083,-0.46484 1.334728,-0.69688 0.590433,-0.16158 1.18144,-0.31525 1.771764,-0.47247 -0.02335,-0.008 -0.04698,-0.0161 -0.07087,-0.0236 -0.02352,-2.6e-4 -0.04698,-2.6e-4 -0.07087,0 -0.477498,-0.0401 -0.944676,-0.079 -1.417411,-0.11811 -0.01549,-0.0201 -0.03123,-0.0396 -0.04725,-0.059 2.65e-4,-0.0592 2.65e-4,-0.1184 0,-0.17719 0.396145,-0.29816 0.795589,-0.59873 1.192987,-0.89768 0.598282,-0.14584 1.19719,-0.29162 1.795387,-0.43704 0.24031,0 0.480608,0 0.720516,0 0.373891,0.0705 0.748342,0.14147 1.122116,0.21262 -0.02728,0.0116 -0.05486,0.0233 -0.08268,0.0354 -0.01966,0 -0.03911,0 -0.05906,0 -0.414713,0.0715 -0.826558,0.14147 -1.240234,0.21262 -0.295246,0.0391 -0.590322,0.0785 -0.885883,0.11811 -0.212557,0.0549 -0.424957,0.10996 -0.637833,0.16536 -0.216602,0.0983 -0.432833,0.19659 -0.649646,0.2953 0.05152,0.0156 0.102633,0.0312 0.153552,0.0472 0.145467,0.1057 0.291622,0.21236 0.437035,0.31893 0.134089,0.0154 0.267998,0.0312 0.4016,0.0472 0.279327,-0.0396 0.559354,-0.079 0.838635,-0.11813 0.0396,-0.0159 0.07901,-0.0318 0.118115,-0.0472 -0.152043,0.14422 -0.30684,0.29107 -0.460658,0.43701 -0.275828,0.16539 -0.550949,0.33047 -0.826821,0.4961 -0.216529,0.17317 -0.432833,0.34623 -0.649647,0.51972 -0.145609,0.34668 -0.291092,0.6927 -0.437035,1.03944 0.02391,-0.004 0.04751,-0.008 0.07087,-0.0119 0.225722,-0.14023 0.456986,-0.28376 0.685082,-0.42524 0.318749,-0.0435 0.638099,-0.0869 0.95675,-0.12993 0.252016,0.0705 0.512109,0.14935 0.767765,0.22444 0.248145,0.22794 0.496359,0.45644 0.744141,0.68506 0.118377,0.2911 0.2365,0.58246 0.354354,0.87408 -0.02731,0.15729 -0.05486,0.31472 -0.08268,0.47247 -0.13386,0.26799 -0.26747,0.5352 -0.4016,0.80319 -0.236252,0.19291 -0.472207,0.38561 -0.708705,0.57878 2.64e-4,0.0156 2.64e-4,0.0312 0,0.0473 0.112358,0.0116 0.22075,0.0233 0.330729,0.0354 0.169206,-0.0159 0.338868,-0.0318 0.507905,-0.0472 0.04743,-0.0238 0.09476,-0.0475 0.14174,-0.0709 0.125412,-0.0785 0.252251,-0.15774 0.377978,-0.23622 0.01598,0.004 0.03176,0.008 0.04725,0.0119 2.64e-4,0.0425 2.64e-4,0.0942 0,0.14173 2.64e-4,0.0591 2.64e-4,0.11785 0,0.1772 -0.06697,0.13022 -0.133602,0.25958 -0.2008,0.38978 -0.09051,0.11022 -0.180848,0.22021 -0.271672,0.33073 -0.193164,0.0708 -0.385585,0.14147 -0.578776,0.21259 0.0397,0.0116 0.08688,0.0233 0.129929,0.0355 0.227682,0.0429 0.456988,0.0863 0.685083,0.12991 0.389699,-0.0986 0.779841,-0.19712 1.169363,-0.29528 0.240247,-0.20092 0.48061,-0.40187 0.720519,-0.6024 0.204758,-0.25197 0.409739,-0.50425 0.614211,-0.75597 -0.06266,0.008 -0.125727,0.0156 -0.188989,0.0236 -0.213336,0.008 -0.424958,0.0153 -0.637834,0.0236 -0.125891,-0.0318 -0.251719,-0.0633 -0.377978,-0.0945 -0.02339,-0.13827 -0.04698,-0.27588 -0.07087,-0.41341 0.01598,-0.16931 0.03176,-0.33888 0.04725,-0.50792 0.133903,-0.24003 0.267996,-0.48061 0.4016,-0.72051 -0.03513,0.0116 -0.06273,0.0156 -0.0945,0.0236 -0.12697,0.0276 -0.251719,0.0548 -0.377975,0.0827 -0.165502,-0.0161 -0.330465,-0.0318 -0.496094,-0.0473 -0.05494,-0.11065 -0.109977,-0.22074 -0.165365,-0.33073 0.0868,-0.27953 0.173504,-0.55935 0.259858,-0.83862 0.11825,-0.2205 0.236501,-0.44124 0.354354,-0.66146 -0.03119,-0.008 -0.06273,-0.0161 -0.09449,-0.0236 -0.300742,-2.6e-4 -0.598199,-0.008 -0.897694,-0.0119 -0.181007,-0.008 -0.361964,-0.0161 -0.543341,-0.0236 0.02392,-0.0238 0.04751,-0.0475 0.07087,-0.0709 0.152096,-0.12875 0.30737,-0.26011 0.460659,-0.38979 0.648705,-0.0317 1.299556,-0.0633 1.948939,-0.0945 0.429241,0.0666 0.858586,0.13359 1.287481,0.20079 0.106516,0.14928 0.212876,0.29896 0.318918,0.44884 -0.06275,0.13364 -0.125727,0.26747 -0.188989,0.40161 -0.06683,0.11814 -0.133602,0.23596 -0.2008,0.35436 -0.114218,0.0747 -0.228095,0.14933 -0.342541,0.22442 0.04369,-0.008 0.08688,-0.0161 0.129929,-0.0236 0.293495,0.0154 0.590852,0.0312 0.885884,0.0473 0.283506,0.0469 0.567227,0.0942 0.850444,0.14173 0.200914,0.10989 0.401866,0.22022 0.602401,0.33073 0.07897,0.1178 0.165629,0.24384 0.248047,0.36616 0.04753,0.14155 0.09476,0.28321 0.14174,0.42521 -0.01156,0.33872 -0.02336,0.67697 -0.03544,1.01582 2.65e-4,0.0193 2.65e-4,0.0391 0,0.0591 0.01622,-0.0241 0.03176,-0.0475 0.04725,-0.0709 0.388903,-0.33838 0.787717,-0.68535 1.181177,-1.02762 0.173378,-0.34258 0.346741,-0.68535 0.519718,-1.02764 0.04747,-0.38182 0.09476,-0.76409 0.14174,-1.14573 -0.05088,-0.31107 -0.102103,-0.62235 -0.153554,-0.93313 -0.0076,0.0193 -0.01548,0.0391 -0.02363,0.0591 -0.103764,0.18777 -0.204473,0.36983 -0.307107,0.55515 -0.118052,0.0983 -0.235969,0.19661 -0.354351,0.2953 -0.106299,0.0196 -0.212347,0.0391 -0.318918,0.0591 -0.05501,-0.095 -0.10998,-0.18925 -0.165365,-0.28347 -0.01154,-0.13796 -0.02336,-0.27588 -0.03544,-0.41341 -0.01154,0.0114 -0.02336,0.0233 -0.03543,0.0354 -0.09232,-0.0486 -0.180848,-0.0947 -0.271669,-0.14173 -0.05886,-0.0633 -0.117853,-0.12626 -0.177178,-0.189 -0.02729,-0.12623 -0.04698,-0.26011 -0.07087,-0.38978 0.04744,-0.31081 0.09476,-0.60661 0.14174,-0.9095 -0.212138,-0.47229 -0.424958,-0.9452 -0.637834,-1.41743 -0.684643,-0.71271 -1.369898,-1.42555 -2.055246,-2.13791 -0.574569,-0.57904 -1.149413,-1.15783 -1.724517,-1.73634 -0.133601,-0.30343 -0.267467,-0.6066 -0.401598,-0.9095 -0.109934,-0.37022 -0.220223,-0.74047 -0.330729,-1.11031 0.03175,-0.16161 0.06326,-0.32312 0.09449,-0.48428 -0.105841,0.0901 -0.22022,0.18872 -0.330729,0.28348 -0.133945,0.3629 -0.26747,0.72419 -0.4016,1.08669 0.08302,0.41351 0.165629,0.82655 0.248046,1.24023 0.260253,0.30699 0.519983,0.61395 0.779577,0.92131 0.433395,0.38563 0.86646,0.77145 1.299292,1.15756 0.319172,0.38952 0.638101,0.7793 0.956754,1.16937 0.16564,0.36987 0.330994,0.73994 0.496094,1.1103 -0.03124,-0.0436 -0.06273,-0.0869 -0.0945,-0.12993 -0.29864,-0.39357 -0.598196,-0.79558 -0.897691,-1.19298 -0.389483,-0.36246 -0.779312,-0.72472 -1.169366,-1.0867 -0.417095,-0.35856 -0.834433,-0.71684 -1.252046,-1.07487 -0.365918,-0.50425 -0.732065,-1.00819 -1.098494,-1.5119 -0.137525,-0.39395 -0.267467,-0.77984 -0.401598,-1.16936 -0.04303,-0.28363 -0.08636,-0.56723 -0.129929,-0.85045 0.05534,-0.16943 0.11838,-0.34674 0.177176,-0.51971 -0.04689,0.0587 -0.09423,0.11785 -0.141743,0.17717 z"
         inkscape:path-effect="#path-effect852"
         inkscape:connector-curvature="0"
         id="path850"
         d="m 27.236039,261.15115 c -0.108175,0.16522 -0.324723,0.49595 -0.474451,0.90959 -0.149729,0.41365 -0.232334,0.90927 -0.250074,1.39374 -0.01774,0.48446 0.02948,0.95664 0.07081,1.24215 0.04133,0.28551 0.07676,0.38392 0.208899,0.49632 0.132141,0.1124 0.360157,0.23821 0.606115,0.49203 0.245957,0.25381 0.509867,0.63589 0.677199,0.9646 0.167333,0.32871 0.238199,0.6043 0.250014,0.7146 0.01181,0.11031 -0.03541,0.0552 -0.23024,-0.17701 -0.194833,-0.23222 -0.537508,-0.64185 -0.974475,-1.00403 -0.436966,-0.36218 -0.96853,-0.67719 -1.385896,-0.91737 -0.417366,-0.24019 -0.720485,-0.40553 -1.015864,-0.62016 -0.295379,-0.21464 -0.582709,-0.47836 -0.785514,-0.77768 -0.202805,-0.29932 -0.320917,-0.63397 -0.381895,-0.78954 -0.06098,-0.15557 -0.06491,-0.13198 -0.120649,-0.0145 -0.05574,0.11747 -0.160695,0.32349 -0.225745,0.556 -0.06505,0.23251 -0.08864,0.48804 -0.06699,0.70082 0.02165,0.21278 0.08851,0.3819 0.179125,0.54737 0.09061,0.16547 0.204702,0.32676 0.252094,0.4075 0.04739,0.0807 0.02771,0.0807 -0.08188,0.0807 -0.109597,0 -0.303813,0 -0.4989,-0.0394 -0.195087,-0.0394 -0.387755,-0.11803 -0.598467,-0.1909 -0.210712,-0.0729 -0.438902,-0.13974 -0.681072,-0.15355 -0.24217,-0.0138 -0.497907,0.0255 -0.615977,0.0469 -0.11807,0.0214 -0.09063,0.026 0.005,0.0748 0.09561,0.0488 0.266433,0.14416 0.50058,0.34485 0.234146,0.2007 0.533534,0.50796 0.720528,0.77364 0.186994,0.26568 0.261802,0.49011 0.274756,0.65699 0.01295,0.16689 -0.04032,0.28574 -0.300745,0.45544 -0.260429,0.16971 -0.727648,0.3935 -1.149062,0.58058 -0.421414,0.18708 -0.7952,0.3366 -1.151673,0.52565 -0.356474,0.18904 -0.694785,0.4172 -0.947038,0.62776 -0.252253,0.21056 -0.425009,0.41145 -0.485962,0.50208 -0.06095,0.0906 -0.01379,0.0749 0.127151,0.0318 0.140937,-0.0431 0.378773,-0.11443 0.701339,-0.16359 0.322566,-0.0492 0.732587,-0.0768 1.076906,-0.0158 0.344319,0.061 0.624058,0.21074 0.812953,0.3996 0.188895,0.18886 0.287361,0.4173 0.32105,0.69294 0.03369,0.27563 0.0018,0.60614 -0.08283,0.94291 -0.08466,0.33677 -0.222347,0.68295 -0.235232,0.81187 -0.01288,0.12892 0.103608,0.0365 0.333493,-0.15799 0.229885,-0.19453 0.577242,-0.49452 0.97277,-0.76015 0.395527,-0.26564 0.840802,-0.49812 1.358832,-0.69305 0.51803,-0.19492 1.108058,-0.35226 1.391486,-0.43487 0.283429,-0.0826 0.259729,-0.0905 0.236093,-0.0944 -0.02364,-0.004 -0.0471,-0.004 -0.297804,-0.0239 -0.250707,-0.0199 -0.717882,-0.0588 -0.962168,-0.0884 -0.244286,-0.0296 -0.259951,-0.0491 -0.267813,-0.0886 -0.0079,-0.0394 -0.0079,-0.0986 0.190228,-0.27707 0.19809,-0.17845 0.597535,-0.47902 1.09538,-0.70134 0.497845,-0.22233 1.096751,-0.36812 1.515982,-0.44092 0.419231,-0.0728 0.659529,-0.0728 0.966397,-0.0374 0.306868,0.0354 0.681322,0.10637 0.854614,0.14762 0.173291,0.0412 0.14575,0.053 0.121976,0.059 -0.02377,0.006 -0.04322,0.006 -0.260589,0.0415 -0.217365,0.0356 -0.629104,0.10614 -0.983567,0.16129 -0.354463,0.0551 -0.649547,0.0945 -0.903595,0.14173 -0.254047,0.0472 -0.466446,0.10232 -0.681181,0.17913 -0.214735,0.0768 -0.430966,0.17511 -0.513675,0.23231 -0.08271,0.0572 -0.03163,0.0729 0.06651,0.13374 0.09813,0.0608 0.244289,0.1675 0.384127,0.22851 0.139838,0.061 0.273754,0.0768 0.480254,0.0649 0.206499,-0.0118 0.48652,-0.0513 0.645959,-0.0788 0.159439,-0.0276 0.198901,-0.0434 0.142398,0.021 -0.0565,0.0643 -0.211301,0.21117 -0.426104,0.36687 -0.214804,0.1557 -0.489927,0.32078 -0.736137,0.49015 -0.246211,0.16938 -0.462522,0.34243 -0.643808,0.60248 -0.181286,0.26005 -0.326771,0.60606 -0.387723,0.77746 -0.06095,0.17139 -0.03735,0.16742 0.08722,0.0954 0.124566,-0.072 0.355822,-0.21558 0.629236,-0.308 0.273413,-0.0924 0.592768,-0.13579 0.877658,-0.12071 0.28489,0.0151 0.545742,0.0913 0.797564,0.24281 0.251823,0.15149 0.500034,0.38 0.683084,0.63978 0.18305,0.25979 0.301169,0.55115 0.346495,0.77552 0.04533,0.22437 0.01778,0.3818 -0.06301,0.59466 -0.08079,0.21287 -0.214398,0.48008 -0.399528,0.71056 -0.18513,0.23049 -0.421086,0.42319 -0.539342,0.52756 -0.118256,0.10438 -0.118256,0.11998 -0.0621,0.13404 0.05616,0.0141 0.164559,0.0257 0.304177,0.0237 0.139618,-0.002 0.309292,-0.0177 0.417527,-0.0375 0.108234,-0.0197 0.155574,-0.0434 0.241778,-0.0944 0.0862,-0.0509 0.213029,-0.1302 0.283859,-0.16746 0.07083,-0.0373 0.08661,-0.0333 0.09436,-0.0101 0.0077,0.0232 0.0077,0.0749 0.0077,0.12822 0,0.0533 0,0.11206 -0.03353,0.20682 -0.03353,0.0948 -0.10017,0.22412 -0.178983,0.34435 -0.07881,0.12023 -0.169159,0.23021 -0.311116,0.32095 -0.141958,0.0907 -0.334377,0.16141 -0.411052,0.20235 -0.07668,0.0409 -0.0298,0.0537 0.105598,0.0812 0.135396,0.0275 0.364687,0.0709 0.67364,0.0434 0.308952,-0.0276 0.699095,-0.12609 1.01397,-0.27571 0.314876,-0.14962 0.555234,-0.35057 0.777544,-0.57684 0.222311,-0.22628 0.427287,-0.47856 0.498195,-0.6005 0.07091,-0.12193 0.0079,-0.11406 -0.130431,-0.10616 -0.138307,0.008 -0.349909,0.0157 -0.519339,0.004 -0.16943,-0.0118 -0.295267,-0.0433 -0.370201,-0.12815 -0.07493,-0.0849 -0.09852,-0.22249 -0.10244,-0.37594 -0.0039,-0.15346 0.01186,-0.32303 0.08663,-0.52758 0.07477,-0.20455 0.208864,-0.44513 0.257812,-0.56058 0.04895,-0.11546 0.02203,-0.10874 -0.05733,-0.0909 -0.07936,0.0179 -0.204088,0.0451 -0.350011,0.0511 -0.145923,0.006 -0.310884,-0.01 -0.421308,-0.0729 -0.110425,-0.0632 -0.165468,-0.17323 -0.149689,-0.3681 0.01578,-0.19486 0.102485,-0.47468 0.204822,-0.72457 0.102336,-0.24988 0.220589,-0.47062 0.263943,-0.58461 0.04335,-0.11398 0.01176,-0.12187 -0.154413,-0.12782 -0.166176,-0.006 -0.463683,-0.01 -0.703936,-0.0158 -0.240254,-0.006 -0.421221,-0.0138 -0.499974,-0.0296 -0.07875,-0.0159 -0.05511,-0.0395 0.03264,-0.11558 0.08775,-0.0761 0.243009,-0.20742 0.644006,-0.288 0.400996,-0.0806 1.051849,-0.11213 1.591128,-0.0944 0.539279,0.0177 0.968629,0.0847 1.236209,0.19288 0.267581,0.10819 0.373937,0.25787 0.395677,0.3995 0.02174,0.14163 -0.04124,0.27546 -0.10627,0.4016 -0.06503,0.12614 -0.131798,0.24396 -0.222436,0.34058 -0.09064,0.0966 -0.204525,0.17124 -0.239922,0.20477 -0.0354,0.0335 0.0078,0.0257 0.176074,0.0296 0.168237,0.004 0.46559,0.0198 0.75484,0.0513 0.28925,0.0315 0.572973,0.0788 0.814978,0.15749 0.242005,0.0787 0.442958,0.18904 0.583082,0.30284 0.140125,0.1138 0.225909,0.24044 0.29088,0.37232 0.06497,0.13188 0.112193,0.27355 0.129934,0.51385 0.01774,0.2403 0.0059,0.57855 2.9e-5,0.75763 -0.0059,0.17908 -0.0059,0.19888 0.0021,0.19679 0.0081,-0.002 0.02363,-0.0255 0.225874,-0.20631 0.202242,-0.18086 0.601057,-0.52783 0.884418,-0.87029 0.283361,-0.34246 0.456715,-0.68523 0.566876,-1.04728 0.110161,-0.36204 0.157452,-0.74431 0.155467,-1.09062 -0.002,-0.34632 -0.05321,-0.6576 -0.08264,-0.80339 -0.02942,-0.14578 -0.03734,-0.12599 -0.09327,-0.0221 -0.05593,0.10388 -0.156647,0.28594 -0.266926,0.4278 -0.110279,0.14186 -0.228217,0.24014 -0.340558,0.29932 -0.11234,0.0592 -0.218361,0.0788 -0.299327,0.0413 -0.08096,-0.0375 -0.135944,-0.13178 -0.169392,-0.24795 -0.03345,-0.11617 -0.04527,-0.25409 -0.0569,-0.31713 -0.01163,-0.063 -0.0235,-0.0512 -0.07579,-0.0693 -0.0523,-0.0181 -0.140788,-0.0643 -0.215684,-0.11944 -0.0749,-0.0552 -0.133905,-0.11813 -0.174977,-0.21312 -0.04107,-0.095 -0.06526,-0.22805 -0.05285,-0.44825 0.01241,-0.22019 0.05854,-0.51617 -0.02409,-0.90367 -0.08263,-0.3875 -0.29544,-0.86042 -0.744176,-1.45283 -0.448736,-0.59242 -1.134002,-1.30524 -1.763956,-1.95095 -0.629953,-0.6457 -1.204799,-1.22448 -1.559177,-1.66552 -0.354378,-0.44103 -0.488245,-0.7442 -0.610276,-1.08078 -0.12203,-0.33659 -0.232317,-0.70684 -0.271643,-0.97263 -0.03933,-0.26579 -0.0078,-0.4273 -0.04486,-0.46263 -0.03705,-0.0353 -0.151715,0.063 -0.274026,0.29174 -0.122311,0.22879 -0.255831,0.59009 -0.281467,0.97815 -0.02564,0.38806 0.05697,0.8011 0.228318,1.16153 0.171346,0.36042 0.43108,0.66738 0.777594,1.01389 0.346513,0.34651 0.779576,0.73233 1.155558,1.12013 0.375983,0.38779 0.6949,0.77758 0.937037,1.1575 0.242137,0.37992 0.407489,0.74999 0.474423,0.91341 0.06694,0.16342 0.03544,0.12013 -0.128813,-0.0989 -0.164256,-0.21902 -0.465694,-0.61961 -0.810163,-0.99951 -0.34447,-0.37991 -0.734293,-0.74217 -1.137864,-1.10244 -0.40357,-0.36026 -0.820908,-0.71854 -1.212701,-1.14971 -0.391793,-0.43117 -0.757939,-0.93512 -1.008772,-1.3844 -0.250832,-0.44927 -0.383087,-0.83437 -0.471656,-1.17098 -0.08857,-0.3366 -0.131896,-0.62021 -0.124779,-0.84618 0.0071,-0.22598 0.06783,-0.40408 0.07384,-0.46121 0.006,-0.0571 -0.04132,0.002 -0.06506,0.0317 -0.02374,0.0297 -0.02373,0.0296 -0.131906,0.19481 z"
         style="fill:#020202;fill-opacity:1;stroke:url(#linearGradient868);stroke-width:0.01;stroke-linecap:butt;stroke-linejoin:miter;stroke-miterlimit:4;stroke-dasharray:none;stroke-opacity:1" />
      <path
         inkscape:original-d="m 31.478328,268.88802 c 0.130196,0.14147 0.260125,0.28321 0.38979,0.42521 0.05539,0.13756 0.110508,0.27536 0.165364,0.41341 0.03574,0.0431 0.07114,0.0864 0.106304,0.12994 0.05542,0.0312 0.110509,0.0627 0.165365,0.0945 0.0081,0.0154 0.01601,0.0312 0.02363,0.0473 -0.01558,0.008 -0.03123,0.0153 -0.04725,0.0236 -0.156385,0 -0.314717,0 -0.472472,0 -0.161433,-0.0318 -0.322588,-0.0633 -0.48428,-0.0945 -0.149543,-0.14613 -0.298966,-0.29163 -0.448847,-0.43704 -0.05486,-0.17349 -0.10998,-0.34674 -0.165365,-0.5197 0.01601,-0.13009 0.03176,-0.26802 0.04725,-0.40161 0.06705,-0.10633 0.13413,-0.21288 0.2008,-0.31893 -0.03114,0.0193 -0.06273,0.0391 -0.09449,0.0591 0.08773,0.0951 0.173503,0.1887 0.259858,0.28347 0.118395,0.0982 0.2365,0.19659 0.354351,0.2953 z"
         inkscape:path-effect="#path-effect860"
         inkscape:connector-curvature="0"
         id="path858"
         d="m 31.543287,268.95888 c 0.06496,0.0709 0.194891,0.2126 0.287398,0.35232 0.09251,0.13972 0.147627,0.27752 0.192938,0.36815 0.04531,0.0906 0.08073,0.13391 0.126053,0.17135 0.04533,0.0374 0.100424,0.0689 0.131837,0.0924 0.03141,0.0235 0.03931,0.0393 0.03546,0.0512 -0.0039,0.0119 -0.0193,0.0196 -0.10556,0.0236 -0.08626,0.004 -0.244594,0.004 -0.404216,-0.0117 -0.159622,-0.0157 -0.320787,-0.0472 -0.476502,-0.1359 -0.155714,-0.0887 -0.305141,-0.2342 -0.407535,-0.39373 -0.102395,-0.15954 -0.157521,-0.33279 -0.177397,-0.48441 -0.01988,-0.15161 -0.0037,-0.28949 0.03769,-0.40946 0.04134,-0.11997 0.108428,-0.22651 0.126268,-0.2698 0.01784,-0.0433 -0.01377,-0.0235 0.01404,0.0341 0.0278,0.0576 0.113594,0.15122 0.215996,0.24771 0.102402,0.0965 0.220491,0.1949 0.279539,0.24411 0.05905,0.0492 0.05904,0.0492 0.123999,0.12002 z"
         style="fill:#ffffff;fill-opacity:1;stroke:#000000;stroke-width:0.01;stroke-linecap:butt;stroke-linejoin:miter;stroke-miterlimit:4;stroke-dasharray:none;stroke-opacity:1" />
    </g>
  </g>
</svg>
