<?xml version="1.0" encoding="UTF-8" standalone="no"?>
<!-- Created with Inkscape (http://www.inkscape.org/) -->

<svg
   xmlns:dc="http://purl.org/dc/elements/1.1/"
   xmlns:cc="http://creativecommons.org/ns#"
   xmlns:rdf="http://www.w3.org/1999/02/22-rdf-syntax-ns#"
   xmlns:svg="http://www.w3.org/2000/svg"
   xmlns="http://www.w3.org/2000/svg"
   xmlns:sodipodi="http://sodipodi.sourceforge.net/DTD/sodipodi-0.dtd"
   xmlns:inkscape="http://www.inkscape.org/namespaces/inkscape"
   width="68.633003mm"
   height="25.770281mm"
   viewBox="0 0 68.633003 25.770281"
   version="1.1"
   id="svg8"
   inkscape:version="0.92.5 (2060ec1f9f, 2020-04-08)"
   sodipodi:docname="dragonTail.svg">
  <defs
     id="defs2">
    <inkscape:path-effect
       effect="bspline"
       id="path-effect828"
       is_visible="true"
       weight="33.333333"
       steps="2"
       helper_size="0"
       apply_no_weight="true"
       apply_with_weight="true"
       only_selected="false" />
  </defs>
  <sodipodi:namedview
     id="base"
     pagecolor="#ffffff"
     bordercolor="#666666"
     borderopacity="1.0"
     inkscape:pageopacity="0.0"
     inkscape:pageshadow="2"
     inkscape:zoom="7.9195959"
     inkscape:cx="71.678723"
     inkscape:cy="56.559121"
     inkscape:document-units="mm"
     inkscape:current-layer="layer1"
     showgrid="false"
     inkscape:window-width="3840"
     inkscape:window-height="2120"
     inkscape:window-x="3348"
     inkscape:window-y="-12"
     inkscape:window-maximized="1" />
  <metadata
     id="metadata5">
    <rdf:RDF>
      <cc:Work
         rdf:about="">
        <dc:format>image/svg+xml</dc:format>
        <dc:type
           rdf:resource="http://purl.org/dc/dcmitype/StillImage" />
        <dc:title></dc:title>
      </cc:Work>
    </rdf:RDF>
  </metadata>
  <g
     inkscape:label="Layer 1"
     inkscape:groupmode="layer"
     id="layer1"
     transform="translate(-75.028193,-114.05514)">
    <path
       style="fill:#000000;fill-opacity:1;stroke:#000000;stroke-width:0.01;stroke-linecap:butt;stroke-linejoin:miter;stroke-miterlimit:4;stroke-dasharray:none;stroke-opacity:1"
       d="m 75.028273,120.23707 c 1.185384,-0.0197 2.370493,-0.0394 2.962916,-0.0533 0.592423,-0.0138 0.592423,-0.0219 0.995907,-0.21978 0.403485,-0.19793 1.266226,-0.61302 2.338878,-1.13262 1.072651,-0.51959 2.384257,-1.15767 3.644028,-1.63597 1.259771,-0.4783 2.468802,-0.7973 3.563207,-0.95278 1.094406,-0.15548 2.075033,-0.14761 2.966664,-0.0177 0.891631,0.12992 1.695045,0.38197 1.7694,0.32183 0.07435,-0.0601 -0.586279,-0.43595 -1.42293,-0.65646 -0.836651,-0.22051 -1.852329,-0.28743 -2.655655,-0.25833 -0.803326,0.0291 -1.401475,0.15586 -1.696867,0.21485 -0.295392,0.059 -0.291404,0.051 -0.140111,-0.07 0.151293,-0.12104 0.474876,-0.37499 0.929363,-0.62484 0.454487,-0.24985 1.053511,-0.50601 1.75219,-0.69267 0.698679,-0.18665 1.506158,-0.3054 1.90644,-0.3621 0.400281,-0.0567 0.394901,-0.0459 0.249659,0.0154 -0.145241,0.0614 -0.409734,0.16716 -0.596839,0.27345 -0.187105,0.1063 -0.285423,0.20855 -0.317032,0.31308 -0.03161,0.10454 0.0037,0.21056 0.09649,0.28353 0.09276,0.073 0.242147,0.11229 0.450725,0.0945 0.208578,-0.0177 0.476633,-0.0926 0.748138,-0.16347 0.271504,-0.0708 0.54744,-0.13783 0.901521,-0.16536 0.354081,-0.0275 0.787669,-0.0157 1.094672,0.0177 0.307003,0.0335 0.48823,0.0886 0.642623,0.18589 0.154392,0.0973 0.286404,0.24128 0.349372,0.30616 0.06297,0.0649 0.05904,0.0531 -0.03841,0.0282 -0.09745,-0.0249 -0.299942,-0.0654 -0.50673,-0.0832 -0.206788,-0.0177 -0.423116,-0.0138 -0.568827,0.0196 -0.145712,0.0334 -0.220433,0.0963 -0.254031,0.19696 -0.0336,0.10066 -0.02575,0.23794 0.06507,0.32671 0.09082,0.0888 0.263746,0.12806 0.602063,0.20871 0.338317,0.0807 0.84285,0.20284 1.313198,0.42326 0.470348,0.22042 0.907547,0.53946 1.272699,0.88271 0.365152,0.34325 0.662397,0.7158 0.928159,1.13904 0.265761,0.42324 0.501978,0.89961 0.679168,1.33469 0.177191,0.43507 0.29528,0.8287 0.106385,0.81868 -0.188896,-0.01 -0.692973,-0.43075 -1.194914,-0.71816 -0.501942,-0.28741 -1.005887,-0.44489 -1.484292,-0.53152 -0.478404,-0.0866 -0.931043,-0.10237 -1.212556,-0.0965 -0.281513,0.006 -0.391706,0.0334 -0.454856,0.0414 -0.06315,0.008 -0.07887,-0.004 -0.07489,-0.077 0.004,-0.0732 0.02754,-0.20669 -0.07068,-0.41294 -0.09822,-0.20626 -0.319208,-0.48644 -0.671496,-0.74821 -0.352287,-0.26176 -0.836629,-0.5059 -1.429184,-0.63783 -0.592555,-0.13193 -1.293235,-0.15162 -1.966593,-0.0375 -0.673357,0.11415 -1.318828,0.36211 -2.169539,0.76973 -0.850711,0.40762 -1.905371,0.97431 -2.850449,1.59843 -0.945079,0.62412 -1.779528,1.30506 -2.539526,1.86621 -0.759999,0.56116 -1.444843,1.00198 -1.99418,1.26783 -0.549337,0.26585 -0.96257,0.35637 -1.480627,0.29138 -0.518057,-0.065 -1.139682,-0.28531 -1.791437,-0.65746 -0.651755,-0.37214 -1.332732,-0.89567 -1.787513,-1.27761 -0.454781,-0.38193 -0.683129,-0.62209 -0.911484,-0.86226"
       id="path826"
       inkscape:connector-curvature="0"
       inkscape:path-effect="#path-effect828"
       inkscape:original-d="m 75.028273,120.23707 c 1.185379,-0.02 2.37049,-0.0396 3.555339,-0.0591 2.64e-4,-0.008 2.64e-4,-0.016 0,-0.0236 0.806915,-0.38837 1.669658,-0.80346 2.504093,-1.2048 1.310868,-0.63785 2.622473,-1.27593 3.933314,-1.9135 1.208707,-0.3191 2.417736,-0.6381 3.626208,-0.95675 0.980387,0.008 1.961017,0.0155 2.941129,0.0236 0.803249,0.25165 1.606661,0.50371 2.409597,0.75596 -0.653184,-0.37423 -1.314778,-0.74835 -1.972564,-1.12212 -1.015679,-0.0672 -2.031357,-0.13413 -3.047433,-0.2008 -0.590466,0.12576 -1.188784,0.25172 -1.783575,0.37797 0.0042,-0.008 0.0081,-0.016 0.01183,-0.0236 0.298765,-0.23453 0.62235,-0.48848 0.933127,-0.73233 0.598165,-0.25595 1.197189,-0.51211 1.795388,-0.76776 0.7991,-0.11832 1.606662,-0.23651 2.409598,-0.35436 -0.0037,0.004 -0.0076,0.0155 -0.0118,0.0236 -0.286456,0.11443 -0.550952,0.22022 -0.826822,0.33073 -0.09828,0.10222 -0.196599,0.20447 -0.295297,0.30711 0.0358,0.10632 0.07114,0.21234 0.106307,0.31891 0.150104,0.0392 0.299495,0.0785 0.448847,0.11812 0.267671,-0.075 0.535731,-0.14988 0.803199,-0.22442 0.27555,-0.0671 0.551481,-0.13413 0.826823,-0.2008 0.432874,0.0115 0.86646,0.0234 1.299294,0.0354 0.181269,0.0548 0.36249,0.10998 0.543341,0.16537 0.130071,0.13741 0.260122,0.28322 0.389786,0.42522 -0.0037,-0.0121 -0.0076,-0.0239 -0.0118,-0.0354 -0.190069,-0.043 -0.393462,-0.079 -0.590587,-0.11812 -0.216509,0.004 -0.432835,0.008 -0.649647,0.0118 -0.07464,0.0628 -0.149352,0.12573 -0.224423,0.18898 0.0082,0.13807 0.01601,0.27535 0.02363,0.41342 0.173815,0.0392 0.346741,0.0785 0.519718,0.11811 0.503666,0.12166 1.0082,0.24385 1.511903,0.36617 0.437137,0.31853 0.874334,0.63757 1.311106,0.95675 0.295526,0.36586 0.590852,0.73994 0.885881,1.11031 0.236521,0.47618 0.472736,0.95255 0.708707,1.42922 0.118406,0.39355 0.236498,0.78718 0.354351,1.18117 -0.496043,-0.41385 -0.999797,-0.83496 -1.500092,-1.25204 -0.50373,-0.15776 -1.007673,-0.31525 -1.511906,-0.47247 -0.452667,-0.016 -0.905303,-0.0318 -1.358352,-0.0472 -0.11004,0.0273 -0.220221,0.0549 -0.330729,0.0827 -0.01553,-0.0121 -0.03123,-0.0239 -0.04725,-0.0354 0.02394,-0.13449 0.04751,-0.268 0.07087,-0.4016 -0.219723,-0.27918 -0.440708,-0.55936 -0.661458,-0.83864 -0.483957,-0.24434 -0.968298,-0.48848 -1.452846,-0.73232 -0.700717,-0.0199 -1.401397,-0.0396 -2.102492,-0.0591 -0.645682,0.24787 -1.291154,0.49582 -1.937129,0.74414 -1.055441,0.56698 -2.110102,1.13366 -3.165549,1.70089 -0.834683,0.68108 -1.669132,1.36202 -2.504093,2.04343 -0.685054,0.44086 -1.369899,0.88168 -2.055246,1.32292 -0.413333,0.0903 -0.826559,0.18085 -1.240235,0.27167 -0.622284,-0.22091 -1.243907,-0.44124 -1.866257,-0.66146 -0.681045,-0.52405 -1.362025,-1.04757 -2.043432,-1.57096 -0.228111,-0.24045 -0.456457,-0.48061 -0.685083,-0.72052"
       transform="matrix(2.8322299,0,0,2.8322299,-137.46889,-208.97522)" />
  </g>
</svg>
